<svg width="28" height="28" viewBox="0 0 28 28" fill="none" xmlns="http://www.w3.org/2000/svg">
<path d="M24.0954 13.325C24.4727 13.462 24.8324 13.5814 25.1667 13.685C24.903 13.7511 24.6239 13.8274 24.3332 13.9153C22.5455 14.456 20.2843 15.446 18.483 17.2471C16.6907 19.0395 15.3934 21.598 14.5488 23.6713C14.27 24.3557 14.0383 24.9929 13.8528 25.5403C13.7153 24.9998 13.5388 24.3741 13.3172 23.7031C12.6306 21.6242 11.4919 19.0511 9.68795 17.2471C7.87901 15.4382 5.45007 14.45 3.50996 13.9121C3.16277 13.8159 2.8296 13.7336 2.51642 13.6633C2.83904 13.5653 3.18341 13.4534 3.54284 13.3265C5.47592 12.644 7.89032 11.5108 9.68795 9.71317C11.4854 7.91573 12.6249 5.4953 13.3136 3.55641C13.5092 3.00564 13.6698 2.49003 13.7995 2.03353C13.9437 2.49272 14.1205 3.01234 14.333 3.56775C15.0741 5.50422 16.2658 7.91969 18.0593 9.71317C19.8544 11.5083 22.2133 12.6417 24.0954 13.325Z" fill="url(#paint0_linear_2_959)" stroke="#469CE8"/>
<defs>
<linearGradient id="paint0_linear_2_959" x1="13.7688" y1="6.8844" x2="13.7688" y2="6.8844" gradientUnits="userSpaceOnUse">
<stop offset="1" stop-color="#F8FAFC"/>
<stop stop-color="#469CE8"/>
</linearGradient>
</defs>
</svg>
