<svg width="28" height="28" viewBox="0 0 28 28" fill="none" xmlns="http://www.w3.org/2000/svg">
<path d="M24.3266 13.325C24.7039 13.462 25.0636 13.5814 25.3979 13.685C25.1342 13.7511 24.8551 13.8274 24.5644 13.9153C22.7767 14.456 20.5155 15.446 18.7142 17.2471C16.9219 19.0395 15.6246 21.598 14.78 23.6713C14.5012 24.3557 14.2695 24.9929 14.084 25.5403C13.9465 24.9998 13.77 24.3741 13.5484 23.7031C12.8618 21.6242 11.7231 19.0511 9.91915 17.2471C8.11021 15.4382 5.68127 14.45 3.74116 13.9121C3.39397 13.8159 3.0608 13.7336 2.74762 13.6633C3.07024 13.5653 3.41461 13.4534 3.77404 13.3265C5.70712 12.644 8.12152 11.5108 9.91915 9.71317C11.7166 7.91573 12.8561 5.4953 13.5448 3.55641C13.7404 3.00564 13.901 2.49003 14.0307 2.03353C14.1749 2.49272 14.3517 3.01234 14.5642 3.56775C15.3053 5.50422 16.497 7.91969 18.2905 9.71317C20.0856 11.5083 22.4445 12.6417 24.3266 13.325Z" fill="url(#paint0_linear_2_1522)" stroke="#469CE8"/>
<defs>
<linearGradient id="paint0_linear_2_1522" x1="14" y1="6.8844" x2="14" y2="6.8844" gradientUnits="userSpaceOnUse">
<stop offset="1" stop-color="#F8FAFC"/>
<stop stop-color="#469CE8"/>
</linearGradient>
</defs>
</svg>
