<svg width="24" height="127" viewBox="0 0 24 127" fill="none" xmlns="http://www.w3.org/2000/svg">
<ellipse cx="12" cy="63.5" rx="3" ry="54.5" stroke="black" stroke-linecap="round" stroke-linejoin="round"/>
<path d="M19.4 80.5455C19.1277 84.0516 19.2583 88.1467 19.73 90.8863L19.79 91.2273C20.1656 93.3587 20.3766 96.251 20.3766 99.267C20.3766 102.283 20.1656 105.175 19.79 107.307C19.4149 109.441 18.9058 110.64 18.375 110.64C17.8442 110.64 17.3351 109.441 16.96 107.307L16.9 106.966C16.4178 104.286 15.6971 103.543 15.08 105.091C14.4755 106.563 14.0826 109.934 14.08 113.67L14.08 114.636C14.08 120.912 13.1846 126 12.08 126C10.9754 126 10.08 120.912 10.08 114.636V114.125C10.0642 110.277 9.63587 106.874 9 105.545C8.38291 103.998 7.66219 104.741 7.18 107.42L7.12 107.761C6.74486 109.895 6.23582 111.094 5.705 111.094C5.17418 111.094 4.66514 109.895 4.29 107.761C3.91445 105.63 3.70343 102.738 3.70343 99.7216C3.70343 96.7056 3.91445 93.8133 4.29 91.6818L4.35 91.3409C4.82167 88.6012 4.95235 84.5062 4.68 81C4.42093 77.5655 3.82764 75.3331 3.17 75.3182L3 75.3182C1.89543 75.3182 1 70.2305 1 63.9545C1 57.6786 1.89543 52.5909 3 52.5909H3.09C3.76733 52.5009 4.36613 50.0675 4.6 46.4545C4.87235 42.9484 4.74167 38.8533 4.27 36.1136L4.21 35.7727C3.83445 33.6413 3.62343 30.749 3.62343 27.733C3.62343 24.7169 3.83445 21.8246 4.21 19.6932C4.58514 17.5594 5.09418 16.3604 5.625 16.3604C6.15582 16.3604 6.66486 17.5594 7.04 19.6932L7.1 20.0341C7.58219 22.714 8.30291 23.4565 8.92 21.9091L9 21.9091C9.60447 20.4371 9.99738 17.0661 10 13.3295V12.3636C10 6.08767 10.8954 0.999999 12 1C13.1046 1 14 6.08767 14 12.3636V12.875C14.0026 16.6116 14.3955 19.9826 15 21.4545C15.6171 23.002 16.3378 22.2595 16.82 19.5795L16.88 19.2386C17.2551 17.1048 17.7642 15.9058 18.295 15.9058C18.8258 15.9058 19.3349 17.1048 19.71 19.2386C20.0856 21.3701 20.2966 24.2624 20.2966 27.2784C20.2966 30.2944 20.0856 33.1867 19.71 35.3182L19.65 35.6591C19.1783 38.3988 19.0477 42.4938 19.32 46V46.4545C19.5791 49.889 20.1724 52.1215 20.83 52.1364H21C22.1046 52.1364 23 57.224 23 63.5C23 69.776 22.1046 74.8636 21 74.8636H20.91C20.2524 74.8785 19.6591 77.111 19.4 80.5455Z" stroke="black" stroke-linecap="round" stroke-linejoin="round"/>
</svg>
